# AST/ASF file generated using VICON BodyLanguage
# -----------------------------------------------
:version 1.10
:name VICON
:units
  mass 1.0
  length 0.45
  angle deg
:documentation
   .ast/.asf automatically generated from VICON data using
   VICON BodyBuilder and BodyLanguage model FoxedUp or BRILLIANT.MOD
:root
   order TX TY TZ RX RY RZ
   axis XYZ
   position 0 0 0  
   orientation 0 0 0 
:bonedata
  begin
     id 1 
     name lhipjoint
     direction 0.624716 -0.669793 0.401383 
     length 2.38238 
     axis 0 0 0  XYZ
  end
  begin
     id 2 
     name lfemur
     direction 0.34202 -0.939693 0  
     length 6.4574  
     axis 0 0 20  XYZ
    dof rx ry rz
    limits (-160.0 20.0)
           (-70.0 70.0)
           (-60.0 70.0)
  end
  begin
     id 3 
     name ltibia
     direction 0.34202 -0.939693 0   
     length 7.68739   
     axis 0 0 20   XYZ
    dof rx
    limits (-10.0 170.0)
  end
  begin
     id 4 
     name lfoot
     direction 0.0681309 -0.187188 0.979959   
     length 2.46615   
     axis -90 7.62852e-016 20   XYZ
    dof rx rz
    limits (-45.0 90.0)
           (-70.0 20.0)
  end
  begin
     id 5 
     name ltoes
     direction 1.53566e-011 -4.21819e-011 1   
     length 1.2376   
     axis -90 7.62852e-016 20   XYZ
    dof rx
    limits (-90.0 20.0)
  end
  begin
     id 6 
     name rhipjoint
     direction -0.644473 -0.655875 0.393043   
     length 2.43293  
     axis 0 0 0  XYZ 
  end
  begin
     id 7 
     name rfemur
     direction -0.34202 -0.939693 0   
     length 6.7025   
     axis 0 0 -20   XYZ
    dof rx ry rz
    limits (-160.0 20.0)
           (-70.0 70.0)
           (-70.0 60.0)
  end
  begin
     id 8 
     name rtibia
     direction -0.34202 -0.939693 0   
     length 7.80547   
     axis 0 0 -20   XYZ
    dof rx
    limits (-10.0 170.0)
 end
 begin
     id 9 
     name rfoot
     direction -0.0756734 -0.207911 0.975216   
     length 2.40315  
     axis -90 -7.62852e-016 -20   XYZ
    dof rx rz
    limits (-45.0 90.0)
           (-20.0 70.0)
  end
  begin
     id 10 
     name rtoes
     direction -1.5353e-011 -4.21879e-011 1   
     length 1.20477   
     axis -90 -7.62852e-016 -20   XYZ
    dof rx
    limits (-90.0 20.0)
  end
  begin
     id 11 
     name lowerback
     direction 0.0160353 0.987463 -0.157037   
     length 2.18572   
     axis 0 0 0   XYZ
    dof rx ry rz
    limits (-20.0 45.0)
           (-30.0 30.0)
           (-30.0 30.0)
  end
  begin
     id 12 
     name upperback
     direction -0.00499661 0.999756 0.0215076   
     length 2.18016   
     axis 0 0 0   XYZ
    dof rx ry rz
    limits (-20.0 45.0)
           (-30.0 30.0)
           (-30.0 30.0)
  end
  begin
     id 13 
     name thorax
     direction -0.00921346 0.995333 0.0960619   
     length 2.24923   
     axis 0 0 0   XYZ
    dof rx ry rz
    limits (-20.0 45.0)
           (-30.0 30.0)
           (-30.0 30.0)
  end
  begin
     id 14 
     name lowerneck
     direction 0.0274184 0.991181 0.12965   
     length 1.70911   
     axis 0 0 0   XYZ
    dof rx ry rz
    limits (-20.0 45.0)
           (-30.0 30.0)
           (-30.0 30.0)
  end
  begin
     id 15 
     name upperneck
     direction 0.0015627 0.999959 -0.00893559   
     length 1.69312   
     axis 0 0 0   XYZ
    dof rx ry rz
    limits (-20.0 45.0)
           (-30.0 30.0)
           (-30.0 30.0)
  end
  begin
     id 16
     name head
     direction -0.00230242 0.999856 -0.0168327  
     length 1.80241  
     axis 0 0 0   XYZ
    dof rx ry rz
    limits (-20.0 45.0)
           (-30.0 30.0)
           (-30.0 30.0)
  end
  begin
     id 17 
     name lclavicle
     direction 0.955523 0.290741 -0.0494489  
     length 3.84275  
     axis 0 0 0   XYZ
    dof ry rz
    limits (-20.0 10.0)
           (0.0 20.0)
  end
  begin
     id 18 
     name lhumerus
     direction 1 -4.48967e-011 -3.18382e-028   
     length 5.17714   
     axis 180 -30 -90   XYZ
    dof rx ry rz
    limits (-60.0 90.0)
           (-90.0 90.0)
           (-90.0 90.0)
  end
  begin
     id 19
     name lradius
     direction 1 -4.48968e-011 -2.22911e-027   
     length 3.43679   
     axis 180 -30 -90   XYZ
    dof rx
    limits (-10.0 170.0)
  end
  begin
     id 20
     name lwrist
     direction 1 -4.48951e-011 -6.32245e-027   
     length 1.7184   
     axis 3.57107e-015 90 90   XYZ
    dof ry
    limits (-180.0 0.0)
 end
  begin
     id 21 
     name lhand
     direction 1 -4.48924e-011 -1.26431e-026   
     length 0.573117   
     axis 8.06912e-015 90 90   XYZ
    dof rx rz
    limits (-90.0 90.0)
           (-45.0 45.0)
  end
  begin
     id 22 
     name lfingers
     direction 1 -4.49001e-011 -2.52965e-026   
     length 0.462062   
     axis 1.61381e-014 90 90   XYZ
    dof rx
    limits (0.0 90.0)
  end
  begin
     id 23
     name lthumb
     direction 0.707107 -6.35008e-011 0.707107   
     length 0.663431   
     axis -90 45 -1.62303e-014   XYZ
    dof rx rz
    limits (-45.0 45.0)
           (-45.0 45.0)
  end
  begin
     id 24 
     name rclavicle
     direction -0.963917 0.256881 -0.0698287   
     length 3.73057  
     axis 0 0 0   XYZ 
    dof ry rz
    limits (-10.0 20.0)
           (-20.0 0.0)
  end
  begin
     id 25 
     name rhumerus
     direction -1 -4.48962e-011 -2.73982e-027  
     length 5.23908   
     axis 180 30 90   XYZ
    dof rx ry rz
    limits (-90.0 60.0)
           (-90.0 90.0)
           (-90.0 90.0)
  end
  begin
     id 26 
     name rradius
     direction -1 -4.48968e-011 -4.33218e-027   
     length 3.46485   
     axis 180 30 90   XYZ
    dof rx
    limits (-10.0 170.0)
  end
  begin
     id 27 
     name rwrist
     direction -1 -4.48989e-011 -6.32372e-027   
     length 1.73243   
     axis 3.57107e-015 -90 -90   XYZ
    dof ry
    limits (-180.0 0.0)
  end
  begin
     id 28
     name rhand
     direction -1 -4.48948e-011 -1.26448e-026   
     length 0.608752   
     axis 8.06912e-015 -90 -90   XYZ
    dof rx rz
    limits (-90.0 90.0)
           (-45.0 45.0)
  end
  begin
     id 29
     name rfingers
     direction -1 -4.48962e-011 -2.52913e-026   
     length 0.490792   
     axis 1.61381e-014 -90 -90   XYZ
    dof rx
    limits (0.0 90.0)
  end
  begin
     id 30
     name rthumb
     direction -0.707107 -6.34878e-011 0.707107   
     length 0.704682   
     axis -90 -45 1.62303e-014   XYZ
    dof rx rz
    limits (-45.0 45.0)
           (-45.0 45.0)
  end
:hierarchy
  begin
    root lhipjoint rhipjoint lowerback
    lhipjoint lfemur
    lfemur ltibia
    ltibia lfoot
    lfoot ltoes
    rhipjoint rfemur
    rfemur rtibia
    rtibia rfoot
    rfoot rtoes
    lowerback upperback
    upperback thorax
    thorax lowerneck lclavicle rclavicle
    lowerneck upperneck
    upperneck head
    lclavicle lhumerus
    lhumerus lradius
    lradius lwrist
    lwrist lhand lthumb
    lhand lfingers
    rclavicle rhumerus
    rhumerus rradius
    rradius rwrist
    rwrist rhand rthumb
    rhand rfingers
  end

#!OML:ASF G:\JayActor3\Patient Classification 1\Patient 1\Session 6\male.ASF
:FULLY-SPECIFIED
:DEGREES
425
root 42.2825 15.9038 -15.9605 133.232 -81.1451 -131.686
lowerback -4.40291 -0.284915 2.37325
upperback 0.847477 -0.545067 0.776467
thorax 3.32841 -0.235482 -0.570958
lowerneck -3.64984 7.42176 6.07683
upperneck 37.3782 9.36474 -4.60038
head 13.8656 3.63062 -1.92884
rclavicle 2.09966e-015 1.51076e-014
rhumerus -32.5056 -21.3985 -74.593
rradius 25.5217
rwrist 5.49943
rhand -17.1151 -5.71467
rfingers 7.12502
rthumb 9.12429 -35.4973
lclavicle 2.09966e-015 1.51076e-014
lhumerus -10.2542 0.129532 80.9255
lradius 31.2923
lwrist 28.9579
lhand -14.4552 8.81399
lfingers 7.12502
lthumb 11.6902 38.4678
rfemur -15.1146 -0.628876 15.6285
rtibia 46.9136
rfoot -12.4366 -9.33394
rtoes -9.95546
lfemur 4.51314 7.16346 -17.5337
ltibia 22.0406
lfoot -22.5215 19.5204
ltoes -5.81926
426
root 42.2699 15.9028 -15.9529 134.544 -81.1317 -132.957
lowerback -4.34274 -0.277256 2.21822
upperback 0.878575 -0.52205 0.715749
thorax 3.32782 -0.225867 -0.544626
lowerneck -3.59141 7.44458 6.05898
upperneck 37.5383 9.36757 -4.55593
head 13.9246 3.62485 -1.91343
rclavicle 4.75841e-015 -1.11319e-014
rhumerus -32.5703 -21.4309 -74.5711
rradius 25.6534
rwrist 5.33526
rhand -17.0982 -5.77836
rfingers 7.12502
rthumb 9.14059 -35.5603
lclavicle 4.75841e-015 -1.11319e-014
lhumerus -10.1967 0.140229 80.9068
lradius 31.3878
lwrist 29.0597
lhand -14.4893 8.82093
lfingers 7.12502
lthumb 11.6573 38.4766
rfemur -15.904 -0.756222 15.3471
rtibia 48.038
rfoot -11.7205 -9.15276
rtoes -9.6289
lfemur 4.64093 7.063 -17.7435
ltibia 21.8331
lfoot -22.5101 19.6179
ltoes -5.85556
427
root 42.2568 15.9025 -15.9463 135.905 -81.1217 -134.273
lowerback -4.2736 -0.269578 2.04894
upperback 0.903905 -0.497978 0.652143
thorax 3.31626 -0.216151 -0.513144
lowerneck -3.53952 7.47036 6.04648
upperneck 37.6798 9.3771 -4.51643
head 13.9777 3.62315 -1.89932
rclavicle -3.40419e-015 6.36111e-015
rhumerus -32.6583 -21.4323 -74.5591
rradius 25.8113
rwrist 5.14484
rhand -17.081 -5.82315
rfingers 7.12502
rthumb 9.15717 -35.6043
lclavicle -3.40419e-015 6.36111e-015
lhumerus -10.1601 0.143531 80.8927
lradius 31.4955
lwrist 29.157
lhand -14.5127 8.83793
lfingers 7.12502
lthumb 11.6347 38.4949
rfemur -16.7305 -0.841522 15.0561
rtibia 49.1945
rfoot -10.9591 -9.02026
rtoes -9.26202
lfemur 4.79007 6.98059 -17.9568
ltibia 21.5787
lfoot -22.4589 19.7094
ltoes -5.93454
428
root 42.243 15.9028 -15.9407 137.265 -81.1147 -135.583
lowerback -4.19986 -0.263525 1.87074
upperback 0.927407 -0.475729 0.587813
thorax 3.30016 -0.207593 -0.477514
lowerneck -3.49461 7.49864 6.04102
upperneck 37.7929 9.39477 -4.48671
head 14.0207 3.62636 -1.88835
rclavicle 8.95773e-015 1.35174e-014
rhumerus -32.759 -21.4079 -74.5566
rradius 25.9876
rwrist 4.93864
rhand -17.082 -5.85899
rfingers 7.12502
rthumb 9.15625 -35.6402
lclavicle 8.95773e-015 1.35174e-014
lhumerus -10.1314 0.147494 80.8843
lradius 31.6089
lwrist 29.2402
lhand -14.5171 8.83801
lfingers 7.12502
lthumb 11.6305 38.4952
rfemur -17.5875 -0.886666 14.7653
rtibia 50.3681
rfoot -10.1723 -8.93689
rtoes -8.90854
lfemur 4.95491 6.92113 -18.1636
ltibia 21.2869
lfoot -22.3687 19.7837
ltoes -6.06101
429
root 42.2282 15.9033 -15.9361 138.604 -81.1153 -136.868
lowerback -4.12731 -0.26057 1.68715
upperback 0.950928 -0.457623 0.52109
thorax 3.28461 -0.201201 -0.441631
lowerneck -3.45513 7.53062 6.04203
upperneck 37.8769 9.4222 -4.4654
head 14.053 3.63533 -1.87967
rclavicle -8.18744e-015 4.77083e-015
rhumerus -32.8714 -21.3745 -74.5569
rradius 26.1726
rwrist 4.73667
rhand -17.0827 -5.88488
rfingers 7.12502
rthumb 9.15556 -35.6661
lclavicle -8.18744e-015 4.77083e-015
lhumerus -10.1092 0.152132 80.8798
lradius 31.7274
lwrist 29.3104
lhand -14.4999 8.82918
lfingers 7.12502
lthumb 11.647 38.4855
rfemur -18.4625 -0.898703 14.4747
rtibia 51.5406
rfoot -9.38691 -8.8913
rtoes -8.53912
lfemur 5.13278 6.88637 -18.3623
ltibia 20.9681
lfoot -22.2433 19.8333
ltoes -6.24038
430
root 42.2122 15.9038 -15.9325 139.912 -81.1248 -138.12
lowerback -4.05641 -0.26142 1.50046
upperback 0.975278 -0.444753 0.451628
thorax 3.27071 -0.197466 -0.407203
lowerneck -3.42058 7.56321 6.05372
upperneck 37.9316 9.45512 -4.45565
head 14.0745 3.64843 -1.87592
rclavicle 7.77745e-015 1.59028e-015
rhumerus -32.9892 -21.3531 -74.5507
rradius 26.3472
rwrist 4.5532
rhand -17.0791 -5.86215
rfingers 7.12502
rthumb 9.15904 -35.6433
lclavicle 7.77745e-015 1.59028e-015
lhumerus -10.0882 0.162896 80.8793
lradius 31.8456
lwrist 29.3613
lhand -14.4482 8.82166
lfingers 7.12502
lthumb 11.6969 38.4751
rfemur -19.3464 -0.883403 14.1869
rtibia 52.6897
rfoot -8.63304 -8.8808
rtoes -8.23451
lfemur 5.31907 6.91972 -18.5383
ltibia 20.6323
lfoot -22.0783 19.8118
ltoes -6.4776
431
root 42.1951 15.9041 -15.9299 141.161 -81.1459 -139.307
lowerback -3.98245 -0.267439 1.31537
upperback 0.993728 -0.438998 0.378853
thorax 3.24881 -0.197318 -0.377522
lowerneck -3.38147 7.59542 6.07649
upperneck 37.9587 9.49128 -4.45618
head 14.0835 3.66478 -1.87738
rclavicle 9.91439e-015 1.27222e-014
rhumerus -33.1252 -21.3456 -74.5334
rradius 26.51
rwrist 4.39513
rhand -17.0621 -5.79569
rfingers 7.12502
rthumb 9.17545 -35.5761
lclavicle 9.91439e-015 1.27222e-014
lhumerus -10.0834 0.164772 80.8796
lradius 31.9696
lwrist 29.4054
lhand -14.3967 8.8251
lfingers 7.12502
lthumb 11.7466 38.4757
rfemur -20.227 -0.847458 13.9065
rtibia 53.7882
rfoot -7.97919 -8.89124
rtoes -7.96807
lfemur 5.5086 6.98618 -18.698
ltibia 20.2883
lfoot -21.8927 19.7415
ltoes -6.74346
432
root 42.1768 15.9044 -15.9283 142.347 -81.181 -140.427
lowerback -3.90738 -0.280473 1.13109
upperback 1.00883 -0.442906 0.302992
thorax 3.22266 -0.201993 -0.352074
lowerneck -3.34852 7.62984 6.10343
upperneck 37.9666 9.53326 -4.46082
head 14.0858 3.68482 -1.87975
rclavicle 1.67228e-014 7.15625e-015
rhumerus -33.2769 -21.3463 -74.5105
rradius 26.665
rwrist 4.25471
rhand -17.0193 -5.67391
rfingers 7.12502
rthumb 9.21672 -35.4525
lclavicle 1.67228e-014 7.15625e-015
lhumerus -10.0874 0.153335 80.8784
lradius 32.0946
lwrist 29.4504
lhand -14.3455 8.84399
lfingers 7.12502
lthumb 11.7959 38.4918
rfemur -21.0911 -0.796391 13.6347
rtibia 54.8048
rfoot -7.48619 -8.90006
rtoes -7.75461
lfemur 5.69617 7.09355 -18.8391
ltibia 19.9431
lfoot -21.681 19.6188
ltoes -7.05746
433
root 42.1574 15.9049 -15.928 143.448 -81.2256 -141.453
lowerback -3.8348 -0.299604 0.951826
upperback 1.01994 -0.455633 0.226903
thorax 3.19369 -0.211007 -0.330228
lowerneck -3.31831 7.66296 6.13237
upperneck 37.9511 9.57681 -4.47096
head 14.0781 3.70643 -1.88387
rclavicle -1.98039e-014 -2.3059e-014
rhumerus -33.4417 -21.3626 -74.4789
rradius 26.8053
rwrist 4.13875
rhand -16.9538 -5.50901
rfingers 7.12502
rthumb 9.27995 -35.2848
lclavicle -1.98039e-014 -2.3059e-014
lhumerus -10.0989 0.126931 80.8759
lradius 32.2189
lwrist 29.496
lhand -14.3091 8.90305
lfingers 7.12502
lthumb 11.831 38.5488
rfemur -21.9292 -0.723689 13.3815
rtibia 55.704
rfoot -7.21059 -8.90007
rtoes -7.61207
lfemur 5.87665 7.28129 -18.9422
ltibia 19.5997
lfoot -21.4288 19.4113
ltoes -7.43858
434
root 42.1368 15.9058 -15.929 144.408 -81.2766 -142.327
lowerback -3.76668 -0.326015 0.784777
upperback 1.02907 -0.479298 0.155298
thorax 3.16508 -0.225301 -0.311299
lowerneck -3.29815 7.69442 6.15512
upperneck 37.9161 9.62101 -4.4822
head 14.063 3.7284 -1.88648
rclavicle 1.78906e-014 4.77083e-015
rhumerus -33.6109 -21.3864 -74.4445
rradius 26.93
rwrist 4.03679
rhand -16.8822 -5.31533
rfingers 7.12502
rthumb 9.34905 -35.088
lclavicle 1.78906e-014 4.77083e-015
lhumerus -10.112 0.0918694 80.8747
lradius 32.3404
lwrist 29.5405
lhand -14.2894 8.98468
lfingers 7.12502
lthumb 11.8501 38.6294
rfemur -22.732 -0.626176 13.1593
rtibia 56.4484
rfoot -7.17993 -8.89696
rtoes -7.61781
lfemur 6.04607 7.48707 -19.0143
ltibia 19.2613
lfoot -21.1667 19.1625
ltoes -7.82203
435
root 42.1146 15.9078 -15.9316 145.217 -81.331 -143.036
lowerback -3.69928 -0.357556 0.63248
upperback 1.02987 -0.511071 0.0899348
thorax 3.12825 -0.243471 -0.294649
lowerneck -3.287 7.72487 6.17632
upperneck 37.8659 9.66863 -4.50223
head 14.0434 3.75138 -1.89127
rclavicle 7.8023e-015 0
rhumerus -33.7973 -21.4021 -74.4085
rradius 27.048
rwrist 3.93315
rhand -16.8089 -5.12003
rfingers 7.12502
rthumb 9.41975 -34.8895
lclavicle 7.8023e-015 0
lhumerus -10.1335 0.0449835 80.8753
lradius 32.4547
lwrist 29.5862
lhand -14.276 9.05864
lfingers 7.12502
lthumb 11.863 38.7026
rfemur -23.4903 -0.494255 12.972
rtibia 57.0025
rfoot -7.39603 -8.89811
rtoes -7.78452
lfemur 6.2019 7.69771 -19.0563
ltibia 18.929
lfoot -20.8967 18.8924
ltoes -8.20403
436
root 42.0911 15.9111 -15.9355 145.81 -81.3861 -143.513
lowerback -3.63874 -0.39675 0.501148
upperback 1.0306 -0.554867 0.0373348
thorax 3.09515 -0.267342 -0.277364
lowerneck -3.29984 7.75993 6.19692
upperneck 37.7988 9.73085 -4.53837
head 14.0232 3.77964 -1.89919
rclavicle 2.52457e-014 -4.77083e-015
rhumerus -33.9786 -21.414 -74.3714
rradius 27.1496
rwrist 3.83777
rhand -16.7656 -4.91927
rfingers 7.12502
rthumb 9.46149 -34.6869
lclavicle 2.52457e-014 -4.77083e-015
lhumerus -10.1454 0.0164392 80.8834
lradius 32.5552
lwrist 29.6162
lhand -14.2724 9.12074
lfingers 7.12502
lthumb 11.8664 38.7645
rfemur -24.1988 -0.322203 12.8296
rtibia 57.3351
rfoot -7.82807 -8.93146
rtoes -8.16912
lfemur 6.34165 7.8947 -19.0633
ltibia 18.5991
lfoot -20.6285 18.6125
ltoes -8.5464
437
root 42.0662 15.9163 -15.9406 146.152 -81.4431 -143.725
lowerback -3.57169 -0.442354 0.39863
upperback 1.02322 -0.609145 -0.00358818
thorax 3.04993 -0.296041 -0.264689
lowerneck -3.32724 7.79501 6.20921
upperneck 37.7289 9.79482 -4.57308
head 14.0043 3.80786 -1.90421
rclavicle -7.57867e-015 -1.43125e-014
rhumerus -34.1707 -21.4235 -74.3278
rradius 27.2349
rwrist 3.75233
rhand -16.7304 -4.74558
rfingers 7.12502
rthumb 9.49547 -34.5116
lclavicle -7.57867e-015 -1.43125e-014
lhumerus -10.1599 0.00152638 80.899
lradius 32.6443
lwrist 29.6324
lhand -14.2836 9.16338
lfingers 7.12502
lthumb 11.8557 38.8078
rfemur -24.8475 -0.110316 12.7329
rtibia 57.4233
rfoot -8.41539 -9.02817
rtoes -8.72635
lfemur 6.47336 8.05847 -19.0359
ltibia 18.2672
lfoot -20.3962 18.3104
ltoes -8.72258
438
root 42.0399 15.9235 -15.9465 146.275 -81.5053 -143.707
lowerback -3.49705 -0.489561 0.329066
upperback 1.00789 -0.667408 -0.0401709
thorax 2.99202 -0.326172 -0.266023
lowerneck -3.35904 7.82659 6.22037
upperneck 37.6566 9.85331 -4.60447
head 13.9846 3.8342 -1.90816
rclavicle 3.27995e-015 1.11319e-014
rhumerus -34.3819 -21.4579 -74.2643
rradius 27.2919
rwrist 3.68758
rhand -16.6986 -4.55562
rfingers 7.12502
rthumb 9.5262 -34.3203
lclavicle 3.27995e-015 1.11319e-014
lhumerus -10.1709 -0.00748271 80.922
lradius 32.7104
lwrist 29.6324
lhand -14.287 9.14789
lfingers 7.12502
lthumb 11.8524 38.7925
rfemur -25.4313 0.143798 12.6694
rtibia 57.2571
rfoot -9.09114 -9.22166
rtoes -9.45735
lfemur 6.60311 8.19846 -18.9821
ltibia 17.9268
lfoot -20.1883 17.9937
ltoes -8.77116
439
root 42.0123 15.9327 -15.9531 146.186 -81.5757 -143.468
lowerback -3.40943 -0.540129 0.289118
upperback 0.984584 -0.731787 -0.0713808
thorax 2.91833 -0.35889 -0.27845
lowerneck -3.38406 7.8515 6.22875
upperneck 37.5762 9.9023 -4.63434
head 13.9586 3.85677 -1.91239
rclavicle 3.72224e-014 -2.38542e-015
rhumerus -34.607 -21.5135 -74.1797
rradius 27.3156
rwrist 3.64743
rhand -16.6723 -4.42252
rfingers 7.12502
rthumb 9.55155 -34.186
lclavicle 3.72224e-014 -2.38542e-015
lhumerus -10.1853 -0.0155447 80.9528
lradius 32.7622
lwrist 29.6279
lhand -14.3005 9.12341
lfingers 7.12502
lthumb 11.8393 38.7687
rfemur -25.9458 0.44139 12.6308
rtibia 56.8363
rfoot -9.80685 -9.54271
rtoes -10.3057
lfemur 6.73694 8.31628 -18.9062
ltibia 17.5695
lfoot -19.9954 17.668
ltoes -8.70203
